<!DOCTYPE svg PUBLIC "-//W3C//DTD SVG 20010904//EN" "http://www.w3.org/TR/2001/REC-SVG-20010904/DTD/svg10.dtd">
<svg version="1.0" xmlns="http://www.w3.org/2000/svg" width="600px" height="200px" viewBox="0 0 6000 2000" preserveAspectRatio="xMidYMid meet">
<g id="layer101" fill="#eb7087" stroke="none">
 <path d="M0 1000 l0 -1000 3000 0 3000 0 0 1000 0 1000 -3000 0 -3000 0 0 -1000z"/>
 </g>
<g id="layer102" fill="#fbe8dd" stroke="none">
 <path d="M0 1000 l0 -1000 3000 0 3000 0 0 1000 0 1000 -3000 0 -3000 0 0 -1000z m1152 603 c92 -25 102 -30 125 -64 l24 -36 -12 -328 -13 -327 -35 -34 c-21 -20 -46 -34 -61 -34 -14 0 -173 11 -355 26 l-330 26 -36 34 -36 35 -13 180 -13 179 -58 0 -59 0 0 48 c0 26 -3 57 -6 70 -6 21 -4 22 49 22 31 0 58 3 60 8 2 4 0 48 -3 97 -4 50 -6 91 -5 93 2 2 35 6 74 9 l71 6 0 -64 c0 -35 3 -82 7 -103 l6 -39 239 5 239 6 -3 -72 -3 -71 -232 -3 -233 -2 0 -39 0 -39 63 -6 c34 -3 154 -8 266 -11 113 -3 206 -7 208 -8 1 -2 0 -34 -4 -71 l-6 -67 -257 7 -256 7 4 -37 c2 -20 7 -36 11 -37 3 0 131 -10 284 -22 153 -13 280 -20 281 -17 2 3 6 82 10 175 3 94 9 211 12 261 l6 91 -86 23 c-47 12 -86 25 -86 27 0 2 7 30 17 63 10 37 22 60 30 60 8 0 60 -12 115 -27z m1502 -16 c83 -27 103 -38 126 -67 l28 -35 15 -515 15 -515 -38 -38 -37 -39 -328 38 -327 39 6 64 c4 36 9 67 12 70 2 3 129 -10 280 -28 152 -17 279 -30 281 -27 3 3 -1 206 -8 452 l-14 447 -91 31 -90 31 19 63 c13 44 23 62 35 61 10 0 62 -15 116 -32z m2655 8 c296 -26 315 -30 345 -78 8 -12 26 -70 41 -129 l28 -107 -29 -38 c-16 -20 -32 -41 -35 -45 -3 -5 -146 0 -317 12 -374 24 -352 24 -352 4 0 -15 -9 -16 -66 -11 -37 4 -68 8 -70 10 -2 2 4 79 12 173 l16 169 37 32 c44 40 28 40 390 8z m-3421 -10 c5 -5 -70 -795 -85 -899 l-6 -39 -65 6 c-36 4 -67 8 -69 10 -2 3 18 215 44 472 l47 467 65 -6 c35 -3 66 -8 69 -11z m1447 -199 l90 -75 7 67 c6 62 10 70 44 99 33 27 44 31 84 27 25 -2 153 -8 285 -14 132 -6 282 -13 334 -16 l94 -7 -6 -65 c-4 -36 -8 -67 -10 -69 -2 -2 -156 4 -341 13 -186 9 -339 14 -341 13 -1 -2 -4 -40 -6 -84 l-4 -79 369 -307 c204 -168 371 -310 373 -315 1 -5 -17 -31 -41 -58 l-43 -50 -115 97 c-64 53 -121 97 -127 97 -7 0 -53 -28 -102 -62 -54 -38 -93 -59 -97 -52 -4 5 -22 32 -41 58 -19 27 -29 51 -24 55 77 50 142 97 143 103 0 4 -69 64 -152 133 l-153 126 -6 -88 c-4 -48 -10 -145 -14 -215 l-7 -128 -57 0 c-31 0 -62 4 -70 9 -12 8 -12 44 -2 237 7 126 14 245 16 264 4 35 2 37 -160 170 -90 74 -164 138 -162 142 1 4 20 30 41 57 l40 50 35 -29 c20 -16 77 -62 126 -104z m-840 -78 l34 -33 15 -240 14 -240 -36 -37 c-20 -21 -43 -38 -52 -38 -8 0 -116 16 -240 36 l-225 36 -29 40 -28 39 27 187 c26 182 28 188 60 221 32 33 34 33 166 46 74 7 162 13 197 14 57 1 65 -1 97 -31z m2355 -123 c83 -63 153 -115 155 -115 3 0 5 20 5 45 l0 45 133 0 c74 0 182 -3 240 -7 l107 -6 0 -64 c0 -34 3 -63 6 -63 3 0 82 21 176 46 93 25 171 44 172 42 5 -7 37 -131 34 -133 -2 -2 -124 -35 -273 -75 -258 -68 -284 -76 -274 -83 2 -2 23 -18 47 -36 l43 -33 -36 -43 c-34 -43 -44 -62 -25 -50 5 3 19 -13 32 -35 24 -42 36 -46 108 -34 35 6 36 7 74 115 21 60 41 109 45 109 4 0 35 -9 69 -21 l61 -20 -30 -80 c-16 -44 -29 -82 -29 -84 0 -2 45 -1 99 2 l99 6 4 -64 c2 -35 3 -67 1 -70 -1 -3 -80 -11 -175 -18 -182 -13 -224 -18 -214 -28 6 -6 -98 -73 -113 -73 -9 0 -136 208 -136 223 0 4 17 18 39 31 l38 23 -318 243 c-176 134 -340 260 -365 280 l-47 37 40 51 c23 29 44 52 49 52 4 0 76 -52 159 -115z m-420 -46 c0 -6 -205 -306 -221 -323 -4 -5 -31 8 -61 30 -29 21 -54 39 -56 40 -3 1 154 232 205 302 l24 32 55 -37 c29 -21 54 -41 54 -44z m-1169 -191 c35 -95 64 -177 64 -182 0 -13 -117 -58 -126 -48 -9 9 -129 332 -129 347 0 9 95 51 121 54 3 1 35 -77 70 -171z m-2836 -133 c128 -163 130 -165 170 -166 22 0 195 -8 385 -17 l345 -17 -2 -69 c-2 -38 -4 -70 -5 -71 -2 -1 -118 4 -258 11 -140 7 -283 13 -318 13 l-63 1 26 -34 26 -34 -50 -41 c-27 -22 -53 -41 -57 -40 -5 0 -37 35 -71 78 -69 88 -76 91 -203 91 -42 0 -98 3 -124 6 l-46 7 0 68 0 69 90 -7 c50 -3 90 -3 90 1 0 4 -41 57 -90 119 l-91 112 48 42 c26 24 53 42 58 42 6 0 68 -74 140 -164z m4687 -118 c-50 -73 -52 -69 27 -65 l71 3 0 -72 0 -73 -150 0 c-82 0 -150 -2 -150 -5 0 -3 7 -17 16 -31 10 -14 13 -28 8 -33 -18 -16 -113 -65 -117 -61 -10 12 -197 378 -197 387 0 7 101 63 115 63 3 0 25 -40 50 -90 44 -87 46 -90 79 -90 32 0 38 6 95 95 l62 95 60 -40 59 -41 -28 -42z m-3137 -98 c33 -25 52 -46 48 -53 -15 -25 -145 -186 -150 -186 -11 0 -103 72 -103 81 0 8 141 197 148 198 2 1 27 -18 57 -40z"/>
 <path d="M5016 1449 c-12 -60 -8 -79 17 -79 12 0 134 -7 270 -16 137 -9 250 -14 253 -12 2 3 -2 24 -9 49 l-13 44 -194 16 c-107 10 -223 20 -256 23 l-61 6 -7 -31z"/>
 <path d="M2245 1186 l-110 -11 -18 -123 c-10 -68 -16 -126 -13 -129 4 -4 275 -52 299 -53 8 0 2 166 -9 278 -4 41 -9 52 -22 51 -9 -1 -66 -7 -127 -13z"/>
 <path d="M5119 980 c28 -22 58 -40 68 -40 10 0 72 15 138 33 l120 34 -85 6 c-47 4 -132 7 -188 7 l-104 0 51 -40z"/>
 </g>
<g id="layer103" fill="#fdf5ed" stroke="none">
 <path d="M0 1493 l0 -506 22 19 c13 10 36 30 51 43 l28 25 -6 226 c-3 124 -8 237 -10 252 -4 26 -3 27 48 30 l52 3 -4 91 -3 92 48 6 c27 3 119 10 204 16 85 6 179 13 208 16 l52 5 0 -44 c0 -24 3 -72 6 -106 l7 -62 61 3 60 3 36 125 c31 107 39 125 56 123 10 -1 114 -27 229 -58 233 -62 216 -52 299 -175 l44 -65 -13 -315 c-19 -426 -19 -450 0 -450 8 0 15 8 15 18 0 40 100 985 104 990 5 4 466 -36 492 -43 7 -2 6 -40 -2 -126 -7 -68 -11 -125 -9 -127 2 -2 52 1 111 6 76 7 110 13 113 23 3 8 28 84 56 169 29 85 56 154 61 154 5 -1 109 -34 231 -73 l222 -72 47 -62 c26 -34 50 -66 54 -70 4 -5 45 37 91 92 46 56 87 101 92 101 5 0 48 -34 97 -75 49 -41 94 -75 101 -75 7 0 30 17 51 37 l38 37 477 -22 c263 -13 493 -22 511 -22 l33 0 -3 -152 c-2 -107 0 -152 8 -155 7 -2 51 46 99 107 47 60 90 110 95 110 5 0 12 -5 15 -10 14 -22 23 -7 29 49 l7 59 95 78 95 77 387 -32 386 -32 66 -56 c36 -31 69 -60 73 -63 5 -4 26 -72 47 -150 22 -79 44 -148 48 -152 5 -5 21 -4 37 2 33 12 30 15 43 -35 7 -30 10 56 11 333 l1 372 -3000 0 -3000 0 0 -507z"/>
 <path d="M3930 1130 c60 -52 66 -53 89 -21 33 46 28 51 -51 51 l-72 0 34 -30z"/>
 <path d="M4536 965 c-9 -14 -23 -37 -33 -51 -16 -25 -16 -25 45 8 61 33 62 33 41 51 -28 23 -34 22 -53 -8z"/>
 <path d="M4395 750 c3 -5 8 -10 11 -10 3 0 2 5 -1 10 -3 6 -8 10 -11 10 -3 0 -2 -4 1 -10z"/>
 <path d="M3020 505 l0 -135 -67 -64 c-38 -35 -83 -76 -101 -91 l-33 -28 -362 42 c-199 23 -374 41 -388 41 -21 0 -39 -16 -88 -80 -34 -43 -66 -82 -71 -85 -9 -6 -400 292 -400 306 0 4 11 21 25 37 25 30 24 42 -5 42 -22 0 -30 -38 -30 -136 0 -66 -2 -74 -19 -74 -11 0 -151 7 -311 16 -175 9 -296 12 -303 6 -7 -5 -69 -54 -139 -110 -70 -56 -129 -102 -132 -102 -2 0 -48 54 -101 119 -111 138 -80 126 -342 137 l-153 6 0 -176 0 -176 3000 0 3000 0 0 151 c0 138 -1 150 -17 145 -10 -2 -72 -7 -138 -11 -231 -13 -241 -15 -367 -90 -62 -37 -122 -73 -134 -80 -19 -12 -24 -7 -83 92 l-63 105 -47 -4 c-34 -4 -93 -31 -225 -103 -152 -83 -181 -96 -190 -83 -6 8 -56 101 -111 207 -55 105 -103 191 -107 191 -4 0 -65 -69 -135 -154 -71 -85 -130 -155 -133 -155 -3 0 -65 49 -137 109 -73 61 -138 110 -144 110 -5 0 -54 -31 -107 -68 -53 -38 -102 -72 -109 -76 -7 -4 -27 15 -52 52 l-40 59 -98 6 c-54 4 -160 10 -236 13 l-138 7 1 36 c1 20 2 39 1 43 -1 3 -24 -3 -51 -13 l-50 -19 -9 22 c-5 13 -19 51 -31 86 -12 34 -24 62 -26 62 -2 0 -4 -61 -4 -135z"/>
 </g>

</svg>